<svg width="189" height="43" viewBox="0 0 189 43" fill="none" xmlns="http://www.w3.org/2000/svg">
<path d="M22.0974 39.9654C21.8847 39.4339 21.672 38.8877 21.463 38.334C21.254 37.7804 21.0563 37.26 20.8697 36.7765C20.81 36.7876 20.7577 36.7987 20.7055 36.806C20.6532 36.8134 20.5973 36.8171 20.5413 36.8171C20.4853 36.8171 20.4293 36.8134 20.3771 36.806C20.3249 36.7987 20.2689 36.7876 20.2129 36.7765C20.086 37.1013 19.948 37.4519 19.795 37.8284C19.642 38.2049 19.4852 38.5887 19.3285 38.9763C19.1718 39.3638 19.0113 39.7476 18.8508 40.1278C18.6904 40.5079 18.5448 40.8623 18.4068 41.1944C18.2687 41.5266 18.1418 41.8219 18.0261 42.0839C17.9105 42.346 17.8172 42.5527 17.75 42.7003C17.8321 42.6892 17.9067 42.6818 17.9739 42.6818H18.3844C18.4516 42.6818 18.5187 42.6892 18.5896 42.7003C18.6717 42.4198 18.7613 42.1356 18.8583 41.844C18.9553 41.5524 19.0636 41.2609 19.1792 40.973C19.3285 40.9693 19.4778 40.9619 19.6308 40.9582C19.78 40.9582 19.9293 40.9545 20.0823 40.9545C20.2652 40.9545 20.4517 40.9545 20.6346 40.9582C20.8174 40.9582 21.004 40.9656 21.1869 40.973C21.2951 41.2646 21.3996 41.5561 21.4966 41.844C21.5936 42.1356 21.6907 42.4198 21.7839 42.7003C21.9034 42.6892 22.0265 42.6818 22.1497 42.6818H22.8848C23.0079 42.6818 23.1385 42.6892 23.2766 42.7003C23.1087 42.3681 22.9258 41.9658 22.7243 41.486C22.5228 41.0062 22.3138 40.5006 22.1011 39.9691M19.4031 40.471C19.53 40.1241 19.6606 39.7808 19.7912 39.4487C19.9256 39.1165 20.0636 38.7769 20.2166 38.4337C20.3547 38.7769 20.4853 39.1128 20.6122 39.4487C20.7353 39.7808 20.8622 40.1241 20.9891 40.471H19.4031Z" fill="black"/>
<path d="M28.7622 39.9211C28.6017 39.8067 28.4301 39.7218 28.251 39.6664C28.0718 39.6111 27.9151 39.5815 27.7845 39.5779V39.5631C27.9188 39.5409 28.0644 39.4967 28.2286 39.4339C28.3928 39.3712 28.5458 39.2826 28.6876 39.1719C28.8294 39.0611 28.9488 38.9209 29.0458 38.7511C29.1428 38.5813 29.1913 38.382 29.1913 38.1495C29.1913 37.917 29.1503 37.714 29.0645 37.5479C28.9824 37.3781 28.8592 37.2416 28.7062 37.1382C28.5495 37.0312 28.3666 36.9537 28.1539 36.902C27.9412 36.8503 27.7024 36.8245 27.4449 36.8245C27.1874 36.8245 26.9374 36.8319 26.665 36.8466C26.3926 36.8614 26.1351 36.8688 25.8851 36.8688C25.7395 36.8688 25.6127 36.8651 25.497 36.8577C25.3813 36.8503 25.2768 36.8393 25.1761 36.8282C25.1984 37.201 25.2171 37.5701 25.2283 37.9354C25.2395 38.3045 25.247 38.7253 25.247 39.1977V40.3603C25.247 40.8327 25.2395 41.2535 25.2283 41.6226C25.2171 41.9917 25.1984 42.3497 25.1761 42.704C25.2731 42.6929 25.4037 42.6855 25.5679 42.6855H26.0493C26.2694 42.6855 26.4784 42.6855 26.6762 42.6929C26.874 42.7003 27.0904 42.7003 27.3218 42.7003C27.583 42.7003 27.833 42.6745 28.0756 42.6191C28.3181 42.5637 28.5346 42.4678 28.7212 42.3312C28.9077 42.1946 29.057 42.0175 29.1727 41.7997C29.2846 41.582 29.3406 41.3199 29.3406 41.0136C29.3406 40.7552 29.2846 40.5375 29.1727 40.3603C29.0607 40.1795 28.9227 40.0355 28.7622 39.9211ZM26.5381 37.9797C26.5456 37.762 26.553 37.5479 26.5642 37.3375C26.6202 37.3265 26.6762 37.3191 26.7247 37.3154C26.7732 37.3154 26.8628 37.3117 26.9897 37.3117C27.1613 37.3117 27.3068 37.3375 27.4225 37.3929C27.5382 37.4483 27.6315 37.5184 27.7061 37.607C27.7808 37.6955 27.833 37.8026 27.8666 37.9244C27.8965 38.0462 27.9151 38.1753 27.9151 38.3119C27.9151 38.4928 27.8853 38.6552 27.8293 38.7917C27.7733 38.9283 27.6949 39.0427 27.6054 39.1313C27.5121 39.2198 27.4076 39.2863 27.2882 39.3306C27.1688 39.3749 27.0494 39.4007 26.9299 39.4007H26.5419C26.5419 39.2531 26.5419 39.1091 26.5381 38.9689C26.5381 38.8286 26.5344 38.681 26.5344 38.5297C26.5344 38.3783 26.5344 38.1975 26.5419 37.9834M27.9002 41.5783C27.8479 41.7222 27.7808 41.844 27.6912 41.94C27.6054 42.0396 27.5046 42.1171 27.3889 42.1688C27.2733 42.2205 27.1538 42.2463 27.027 42.2463C26.9299 42.2463 26.8441 42.2463 26.7769 42.2426C26.706 42.2426 26.6314 42.2352 26.553 42.2279C26.553 42.1541 26.553 42.0581 26.5493 41.9474C26.5493 41.833 26.5456 41.7075 26.5456 41.5709C26.5456 41.4343 26.5456 41.2941 26.5419 41.1501C26.5419 41.0062 26.5381 40.8696 26.5381 40.7294C26.5381 40.5522 26.5381 40.4009 26.5419 40.2717C26.5419 40.1426 26.5456 40.0208 26.5456 39.899C26.5978 39.899 26.6538 39.899 26.7098 39.8953C26.7658 39.8953 26.8367 39.8916 26.9187 39.8916C27.2658 39.8916 27.527 39.9912 27.7099 40.1868C27.8927 40.3825 27.9823 40.6814 27.9823 41.08C27.9823 41.2683 27.9562 41.4343 27.9039 41.5783" fill="black"/>
<path d="M36.4607 36.8651C36.3972 36.8651 36.3263 36.8614 36.2517 36.854C36.1771 36.8467 36.0987 36.8356 36.0166 36.8245C36.039 37.2194 36.0577 37.6107 36.0688 38.0019C36.08 38.3931 36.0875 38.7843 36.0875 39.1793C36.0875 39.5742 36.0763 39.9617 36.0539 40.3308C36.0315 40.6999 35.9681 41.0247 35.8673 41.3125C35.7666 41.5967 35.6173 41.8256 35.4233 41.9953C35.2255 42.1651 34.9568 42.2537 34.6098 42.2537C34.3262 42.2537 34.0799 42.2242 33.8672 42.1688C33.6544 42.1098 33.4753 41.9953 33.3261 41.8219C33.1805 41.6484 33.0686 41.4011 32.9939 41.08C32.9193 40.7589 32.882 40.3419 32.882 39.8215C32.882 39.3306 32.8857 38.8471 32.9007 38.371C32.9118 37.8948 32.9454 37.3781 33.0051 36.8282C32.8895 36.8393 32.77 36.8503 32.6506 36.8577C32.5312 36.8651 32.4118 36.8688 32.2961 36.8688C32.1804 36.8688 32.061 36.8651 31.9416 36.8577C31.8222 36.8503 31.7028 36.8393 31.5871 36.8282C31.5983 36.9721 31.6058 37.1862 31.6132 37.4704C31.6169 37.7546 31.6207 38.1274 31.6207 38.5924C31.6207 38.7474 31.6207 38.8951 31.617 39.039C31.617 39.1829 31.6132 39.3306 31.6132 39.4819C31.6132 39.6332 31.6132 39.803 31.6095 39.9838C31.6095 40.1647 31.6058 40.3677 31.6058 40.5965C31.6058 41.0025 31.6729 41.3458 31.811 41.6263C31.9453 41.9105 32.1319 42.1393 32.367 42.3201C32.6021 42.501 32.882 42.6265 33.2029 42.704C33.5238 42.7815 33.8672 42.8184 34.2366 42.8184C35.0725 42.8184 35.7069 42.6043 36.1397 42.1725C36.5726 41.7407 36.7891 41.032 36.7891 40.0392C36.7891 39.6701 36.7928 39.3158 36.804 38.9836C36.8115 38.6515 36.8226 38.3451 36.8338 38.0683C36.845 37.7915 36.8562 37.5479 36.8674 37.3375C36.8786 37.1272 36.8898 36.9574 36.901 36.8319C36.8264 36.843 36.7555 36.854 36.6846 36.8614C36.6137 36.8688 36.5428 36.8725 36.4681 36.8725" fill="black"/>
<path d="M47.7564 37.404C47.4616 37.1936 47.1109 37.0423 46.7041 36.9537C46.2974 36.8651 45.8458 36.8208 45.3495 36.8208C44.9689 36.8208 44.6591 36.8282 44.4241 36.843C44.189 36.8577 43.9725 36.8651 43.7822 36.8651C43.6367 36.8651 43.5098 36.8614 43.3941 36.854C43.2784 36.8466 43.1739 36.8356 43.0732 36.8245C43.0956 37.1973 43.1142 37.5664 43.1254 37.9317C43.1366 38.3008 43.1441 38.7216 43.1441 39.194V40.3566C43.1441 40.829 43.1366 41.2498 43.1254 41.6189C43.1142 41.988 43.0956 42.3497 43.0732 42.7003C43.1702 42.6892 43.2784 42.6818 43.3941 42.6818H43.7822C44.0061 42.6818 44.2711 42.6818 44.577 42.6892C44.883 42.6966 45.2525 42.6966 45.6854 42.6966C46.0958 42.6966 46.4802 42.6265 46.8385 42.4825C47.2004 42.3386 47.5176 42.1319 47.79 41.8625C48.0624 41.593 48.2789 41.2646 48.4393 40.8844C48.5961 40.5006 48.6782 40.0761 48.6782 39.6C48.6782 39.0575 48.5961 38.6072 48.4356 38.2529C48.2751 37.8948 48.0475 37.6106 47.7527 37.4003M46.7414 41.5746C46.3608 42.0138 45.8458 42.2316 45.1928 42.2316C45.0137 42.2316 44.8644 42.2316 44.7412 42.2242C44.6218 42.2168 44.5173 42.2131 44.4315 42.2057C44.4315 42.1651 44.4315 42.0765 44.4278 41.94C44.4278 41.8034 44.4241 41.6521 44.4241 41.486V38.072C44.4241 37.9022 44.4241 37.7472 44.4278 37.6106C44.4278 37.4741 44.4315 37.3855 44.4315 37.3449C44.5659 37.3338 44.6965 37.3228 44.8271 37.3154C44.9577 37.308 45.1256 37.3043 45.3346 37.3043C45.6331 37.3043 45.9055 37.356 46.1481 37.463C46.3906 37.57 46.5996 37.7177 46.7713 37.917C46.9429 38.1126 47.0773 38.3525 47.1743 38.633C47.2713 38.9135 47.3161 39.2272 47.3161 39.5815C47.3161 40.471 47.1258 41.1354 46.7452 41.5746" fill="black"/>
<path d="M56.149 37.9281C56.1602 37.559 56.1789 37.1899 56.2012 36.8208C56.1042 36.8319 55.996 36.843 55.8803 36.8503C55.7646 36.8577 55.634 36.8614 55.4922 36.8614C55.3504 36.8614 55.2198 36.8577 55.1041 36.8503C54.9885 36.843 54.884 36.8319 54.7832 36.8208C54.8056 37.1936 54.8243 37.559 54.8355 37.9207C54.8466 38.2824 54.8541 38.6994 54.8541 39.1756C54.6862 39.1829 54.5033 39.1866 54.3093 39.1903C54.1115 39.1903 53.8578 39.194 53.548 39.194C53.2383 39.194 52.9771 39.194 52.7644 39.1903C52.5554 39.1903 52.3725 39.1829 52.2233 39.1756C52.2233 38.7031 52.227 38.2861 52.2345 37.9207C52.2419 37.559 52.2606 37.1936 52.2904 36.8208C52.1934 36.8319 52.0852 36.843 51.9695 36.8503C51.8538 36.8577 51.7232 36.8614 51.5814 36.8614C51.4396 36.8614 51.3053 36.8577 51.1933 36.8503C51.0776 36.843 50.9694 36.8319 50.8724 36.8208C50.8948 37.1936 50.9135 37.5627 50.9247 37.9281C50.9358 38.2971 50.9433 38.7179 50.9433 39.1903V40.3529C50.9433 40.8254 50.9358 41.2461 50.9247 41.6152C50.9135 41.9843 50.8948 42.346 50.8724 42.6966C50.9694 42.6855 51.0776 42.6781 51.1933 42.6781H51.9733C52.0889 42.6781 52.1972 42.6855 52.2942 42.6966C52.2718 42.3423 52.2531 41.9806 52.2419 41.6152C52.2307 41.2461 52.2233 40.8254 52.2233 40.3529V39.8657C52.4434 39.8547 52.6599 39.8473 52.8801 39.8399C53.1002 39.8325 53.3167 39.8325 53.5368 39.8325C53.757 39.8325 53.9734 39.8362 54.1936 39.8473C54.4138 39.8547 54.6302 39.862 54.8504 39.8694V40.3566C54.8504 40.829 54.8429 41.2498 54.8317 41.6189C54.8205 41.988 54.8019 42.3497 54.7795 42.7003C54.8765 42.6892 54.9847 42.6818 55.1004 42.6818H55.8803C55.996 42.6818 56.1042 42.6892 56.2012 42.7003C56.1789 42.346 56.1602 41.9843 56.149 41.6189C56.1378 41.2498 56.1303 40.829 56.1303 40.3566V39.194C56.1303 38.7216 56.1378 38.3008 56.149 37.9317" fill="black"/>
<path d="M62.4556 39.9654C62.2428 39.4339 62.0301 38.8877 61.8212 38.334C61.6122 37.7804 61.4144 37.26 61.2278 36.7765C61.1681 36.7876 61.1159 36.7987 61.0636 36.806C61.0114 36.8134 60.9554 36.8171 60.8994 36.8171C60.8435 36.8171 60.7875 36.8134 60.7352 36.806C60.683 36.7987 60.627 36.7876 60.571 36.7765C60.4442 37.1013 60.3061 37.4519 60.1531 37.8284C60.0001 38.2049 59.8434 38.5887 59.6866 38.9763C59.5262 39.3638 59.3695 39.7476 59.209 40.1278C59.0523 40.5079 58.903 40.8623 58.7649 41.1944C58.6268 41.5266 58.5 41.8219 58.3843 42.0839C58.2686 42.346 58.1753 42.5527 58.1081 42.7003C58.1902 42.6892 58.2649 42.6818 58.332 42.6818H58.7425C58.8097 42.6818 58.8769 42.6892 58.9478 42.7003C59.0299 42.4198 59.1194 42.1356 59.2164 41.844C59.3135 41.5524 59.4217 41.2609 59.5374 40.973C59.6866 40.9693 59.8359 40.9619 59.9889 40.9582C60.1382 40.9582 60.2874 40.9545 60.4404 40.9545C60.6233 40.9545 60.8099 40.9545 60.9927 40.9582C61.1756 40.9582 61.3622 40.9656 61.545 40.973C61.6532 41.2646 61.7577 41.5561 61.8547 41.844C61.9518 42.1356 62.0488 42.4198 62.1421 42.7003C62.2615 42.6892 62.3846 42.6818 62.5078 42.6818H63.2429C63.3661 42.6818 63.4967 42.6892 63.6348 42.7003C63.4668 42.3681 63.284 41.9658 63.0825 41.486C62.881 41.0062 62.672 40.5006 62.4593 39.9691M59.7613 40.471C59.8882 40.1241 60.0188 39.7808 60.1494 39.4487C60.2837 39.1165 60.4218 38.7769 60.5748 38.4337C60.7129 38.7769 60.8435 39.1128 60.9703 39.4487C61.0935 39.7808 61.2204 40.1241 61.3472 40.471H59.7613Z" fill="black"/>
<path d="M69.1203 39.9211C68.9599 39.8067 68.7882 39.7218 68.6091 39.6664C68.43 39.6111 68.2733 39.5815 68.1426 39.5779V39.5631C68.277 39.5409 68.4225 39.4967 68.5867 39.4339C68.7509 39.3712 68.9039 39.2826 69.0457 39.1719C69.1875 39.0611 69.3069 38.9209 69.404 38.7511C69.501 38.5813 69.5495 38.382 69.5495 38.1495C69.5495 37.917 69.5084 37.714 69.4226 37.5479C69.3405 37.3781 69.2174 37.2416 69.0644 37.1382C68.9076 37.0312 68.7248 36.9537 68.5121 36.902C68.2994 36.8503 68.0606 36.8245 67.8031 36.8245C67.5456 36.8245 67.2956 36.8319 67.0231 36.8466C66.7507 36.8614 66.4932 36.8688 66.2432 36.8688C66.0977 36.8688 65.9708 36.8651 65.8551 36.8577C65.7394 36.8503 65.635 36.8393 65.5342 36.8282C65.5566 37.201 65.5752 37.5701 65.5864 37.9354C65.5976 38.3045 65.6051 38.7253 65.6051 39.1977V40.3603C65.6051 40.8327 65.5976 41.2535 65.5864 41.6226C65.5752 41.9917 65.5566 42.3497 65.5342 42.704C65.6312 42.6929 65.7618 42.6855 65.926 42.6855H66.4074C66.6276 42.6855 66.8366 42.6855 67.0343 42.6929C67.2321 42.7003 67.4486 42.7003 67.6799 42.7003C67.9411 42.7003 68.1912 42.6745 68.4337 42.6191C68.6763 42.5637 68.8927 42.4678 69.0793 42.3312C69.2659 42.1946 69.4151 42.0175 69.5308 41.7997C69.6428 41.582 69.6988 41.3199 69.6988 41.0136C69.6988 40.7552 69.6428 40.5375 69.5308 40.3603C69.4189 40.1795 69.2808 40.0355 69.1203 39.9211ZM66.8963 37.9797C66.9037 37.762 66.9112 37.5479 66.9224 37.3375C66.9784 37.3265 67.0343 37.3191 67.0828 37.3154C67.1314 37.3154 67.2209 37.3117 67.3478 37.3117C67.5195 37.3117 67.665 37.3375 67.7807 37.3929C67.8964 37.4483 67.9896 37.5184 68.0643 37.607C68.1389 37.6955 68.1912 37.8026 68.2247 37.9244C68.2546 38.0462 68.2733 38.1753 68.2733 38.3119C68.2733 38.4928 68.2434 38.6552 68.1874 38.7917C68.1315 38.9283 68.0531 39.0427 67.9635 39.1313C67.8702 39.2198 67.7657 39.2863 67.6463 39.3306C67.5269 39.3749 67.4075 39.4007 67.2881 39.4007H66.9C66.9 39.2531 66.9 39.1091 66.8963 38.9689C66.8963 38.8286 66.8925 38.681 66.8925 38.5297C66.8925 38.3783 66.8925 38.1975 66.9 37.9834M68.2583 41.5783C68.2061 41.7222 68.1389 41.844 68.0494 41.94C67.9635 42.0396 67.8628 42.1171 67.7471 42.1688C67.6314 42.2205 67.512 42.2463 67.3851 42.2463C67.2881 42.2463 67.2023 42.2463 67.1351 42.2426C67.0642 42.2426 66.9896 42.2352 66.9112 42.2279C66.9112 42.1541 66.9112 42.0581 66.9075 41.9474C66.9075 41.833 66.9037 41.7075 66.9037 41.5709C66.9037 41.4343 66.9037 41.2941 66.9 41.1501C66.9 41.0062 66.8963 40.8696 66.8963 40.7294C66.8963 40.5522 66.8963 40.4009 66.9 40.2717C66.9 40.1426 66.9037 40.0208 66.9037 39.899C66.956 39.899 67.0119 39.899 67.0679 39.8953C67.1239 39.8953 67.1948 39.8916 67.2769 39.8916C67.6239 39.8916 67.8852 39.9912 68.068 40.1868C68.2509 40.3825 68.3404 40.6814 68.3404 41.08C68.3404 41.2683 68.3143 41.4343 68.2621 41.5783" fill="black"/>
<path d="M73.3297 37.9281C73.3409 37.559 73.3595 37.1899 73.3819 36.8208C73.2849 36.8319 73.1767 36.843 73.061 36.8503C72.9453 36.8577 72.8147 36.8614 72.6729 36.8614C72.5311 36.8614 72.4005 36.8577 72.2848 36.8503C72.1691 36.843 72.0646 36.8319 71.9639 36.8208C71.9863 37.1936 72.0049 37.5627 72.0161 37.9281C72.0273 38.2971 72.0348 38.7179 72.0348 39.1903V40.3529C72.0348 40.8254 72.0273 41.2461 72.0161 41.6152C72.0049 41.9843 71.9863 42.346 71.9639 42.6966C72.0609 42.6855 72.1691 42.6781 72.2848 42.6781H73.0647C73.1804 42.6781 73.2886 42.6855 73.3856 42.6966C73.3632 42.3423 73.3446 41.9806 73.3334 41.6152C73.3222 41.2461 73.3147 40.8254 73.3147 40.3529V39.1903C73.3147 38.7179 73.3222 38.2971 73.3334 37.9281" fill="black"/>
<path d="M85.9577 40.0614C85.8942 39.5225 85.8308 38.9689 85.7636 38.4042C85.6965 37.8395 85.6368 37.3117 85.577 36.8208C85.4315 36.8503 85.3121 36.8651 85.2151 36.8651C85.1106 36.8651 84.9874 36.8503 84.8419 36.8208C84.5322 37.511 84.2038 38.2049 83.8605 38.9061C83.5172 39.6037 83.1738 40.2754 82.8268 40.9139C82.6701 40.6113 82.5096 40.2939 82.3379 39.9543C82.1663 39.6185 81.9984 39.2752 81.8267 38.9246C81.655 38.574 81.4871 38.2233 81.3155 37.869C81.1438 37.5147 80.9833 37.1677 80.8266 36.8245C80.7632 36.8356 80.7035 36.8466 80.6438 36.854C80.5878 36.8614 80.5318 36.8651 80.4796 36.8651C80.4161 36.8651 80.3564 36.8614 80.3004 36.854C80.2445 36.8466 80.1885 36.8356 80.1213 36.8245C80.0019 37.8247 79.8676 38.8065 79.722 39.7772C79.5765 40.7478 79.4123 41.7222 79.2295 42.704C79.3004 42.6929 79.3675 42.6855 79.4347 42.6855H79.8377C79.9086 42.6855 79.9758 42.6892 80.0467 42.704C80.0915 42.0655 80.14 41.427 80.1848 40.7884C80.2295 40.1499 80.3004 39.504 80.3937 38.8471H80.4124C80.7408 39.504 81.058 40.1499 81.3677 40.7884C81.6774 41.427 81.9872 42.0655 82.2969 42.704C82.3268 42.6966 82.3529 42.6929 82.379 42.6929C82.4051 42.6929 82.4312 42.6892 82.4611 42.6892C82.4909 42.6892 82.5171 42.6892 82.5432 42.6929C82.5693 42.6929 82.5954 42.7003 82.6253 42.704C82.935 42.047 83.2522 41.3937 83.5694 40.7442C83.8866 40.0946 84.2112 39.4339 84.5396 38.7585H84.5583C84.6292 39.4302 84.6964 40.1093 84.7598 40.7958C84.827 41.4786 84.8718 42.1171 84.9016 42.704C85.021 42.6929 85.1442 42.6855 85.2636 42.6855H85.9689C86.0883 42.6855 86.204 42.6892 86.3196 42.704C86.2674 42.4198 86.2114 42.0433 86.148 41.5746C86.0846 41.1059 86.0211 40.6039 85.9577 40.065" fill="black"/>
<path d="M91.1074 36.8503C90.7753 36.8577 90.3947 36.8614 89.9693 36.8614C89.708 36.8614 89.4543 36.854 89.2005 36.8466C88.9468 36.8356 88.6893 36.8282 88.4318 36.8208C88.4542 37.1936 88.4728 37.5627 88.484 37.9281C88.4952 38.2971 88.5027 38.7179 88.5027 39.1903V40.3529C88.5027 40.8254 88.4952 41.2461 88.484 41.6152C88.4728 41.9843 88.4542 42.3423 88.4318 42.6966C88.4766 42.6929 88.5326 42.6855 88.5997 42.6855C88.6669 42.6855 88.7639 42.6818 88.8945 42.6818H90.2641C90.6633 42.6818 90.9731 42.6818 91.2044 42.6855C91.4321 42.6855 91.6224 42.6929 91.7791 42.6966C91.7679 42.6634 91.7605 42.6191 91.753 42.5674C91.7455 42.5157 91.7455 42.4456 91.7455 42.3534C91.7455 42.2611 91.7455 42.191 91.753 42.1393C91.7605 42.0876 91.7679 42.0323 91.7791 41.9695C91.4433 42.0101 91.1112 42.0396 90.7828 42.0544C90.4544 42.0728 90.126 42.0802 89.7976 42.0802C89.7789 41.737 89.7715 41.3827 89.7715 41.0099C89.7715 40.829 89.7715 40.6445 89.7752 40.4637C89.7752 40.2828 89.7789 40.0983 89.7789 39.9174C90.432 39.9174 91.085 39.9432 91.7418 39.9949C91.7306 39.9026 91.7194 39.8325 91.7119 39.7845C91.7045 39.7366 91.7008 39.6886 91.7008 39.6443C91.7008 39.5889 91.7008 39.5336 91.7082 39.4819C91.712 39.4302 91.7269 39.3564 91.7418 39.2604C91.4134 39.2789 91.0962 39.2937 90.794 39.3047C90.4917 39.3158 90.1521 39.3232 89.7789 39.3306C89.7789 39.0169 89.7789 38.7068 89.7827 38.3968C89.7827 38.0868 89.7976 37.7767 89.82 37.463C89.8834 37.463 89.9916 37.463 90.1409 37.4704C90.2902 37.4778 90.4581 37.4852 90.6484 37.4962C90.835 37.5073 91.0291 37.5184 91.2268 37.5295C91.4246 37.5405 91.6075 37.5516 91.7754 37.5627C91.7642 37.4999 91.7567 37.4446 91.7493 37.3929C91.7418 37.3412 91.7418 37.2711 91.7418 37.1788C91.7418 37.0312 91.753 36.9094 91.7754 36.8208C91.6597 36.8319 91.4358 36.843 91.1037 36.8503" fill="black"/>
<path d="M98.6491 37.404C98.3543 37.1936 98.0035 37.0423 97.5968 36.9537C97.19 36.8651 96.7385 36.8208 96.2422 36.8208C95.8616 36.8208 95.5518 36.8282 95.3167 36.843C95.0816 36.8577 94.8652 36.8651 94.6749 36.8651C94.5293 36.8651 94.4025 36.8614 94.2868 36.854C94.1711 36.8466 94.0666 36.8356 93.9659 36.8245C93.9883 37.1973 94.0069 37.5664 94.0181 37.9317C94.0293 38.3008 94.0368 38.7216 94.0368 39.194V40.3566C94.0368 40.829 94.0293 41.2498 94.0181 41.6189C94.0069 41.988 93.9883 42.3497 93.9659 42.7003C94.0629 42.6892 94.1711 42.6818 94.2868 42.6818H94.6749C94.8988 42.6818 95.1637 42.6818 95.4697 42.6892C95.7757 42.6966 96.1452 42.6966 96.578 42.6966C96.9885 42.6966 97.3729 42.6265 97.7349 42.4825C98.0968 42.3386 98.414 42.1319 98.6864 41.8625C98.9626 41.593 99.1753 41.2646 99.3358 40.8844C99.4925 40.5006 99.5746 40.0761 99.5746 39.6C99.5746 39.0575 99.4925 38.6072 99.332 38.2529C99.1716 37.8948 98.9439 37.6106 98.6491 37.4003M97.6378 41.5746C97.2572 42.0138 96.7422 42.2316 96.0892 42.2316C95.9101 42.2316 95.7608 42.2316 95.6376 42.2242C95.5182 42.2168 95.4137 42.2131 95.3279 42.2057C95.3279 42.1651 95.3279 42.0765 95.3242 41.94C95.3242 41.8034 95.3205 41.6521 95.3205 41.486V38.072C95.3205 37.9022 95.3205 37.7472 95.3242 37.6106C95.3242 37.4741 95.3279 37.3855 95.3279 37.3449C95.4623 37.3338 95.5929 37.3228 95.7198 37.3154C95.8504 37.308 96.0183 37.3043 96.2273 37.3043C96.5258 37.3043 96.7982 37.356 97.0408 37.463C97.2833 37.57 97.4923 37.7177 97.664 37.917C97.8356 38.1126 97.97 38.3525 98.067 38.633C98.1603 38.9135 98.2088 39.2272 98.2088 39.5815C98.2088 40.471 98.0185 41.1354 97.6378 41.5746Z" fill="black"/>
<path d="M103.146 37.9281C103.157 37.559 103.176 37.1899 103.198 36.8208C103.101 36.8319 102.993 36.843 102.877 36.8503C102.761 36.8577 102.631 36.8614 102.489 36.8614C102.347 36.8614 102.217 36.8577 102.101 36.8503C101.985 36.843 101.877 36.8319 101.78 36.8208C101.802 37.1936 101.821 37.5627 101.832 37.9281C101.843 38.2971 101.851 38.7179 101.851 39.1903V40.3529C101.851 40.8254 101.843 41.2461 101.832 41.6152C101.821 41.9843 101.802 42.346 101.78 42.6966C101.877 42.6855 101.985 42.6781 102.101 42.6781H102.881C102.997 42.6781 103.101 42.6855 103.202 42.6966C103.179 42.3423 103.161 41.9806 103.15 41.6152C103.138 41.2461 103.131 40.8254 103.131 40.3529V39.1903C103.131 38.7179 103.138 38.2971 103.15 37.9281" fill="black"/>
<path d="M109.471 39.9654C109.258 39.4339 109.046 38.8877 108.837 38.334C108.628 37.7804 108.43 37.26 108.243 36.7765C108.187 36.7876 108.131 36.7987 108.079 36.806C108.027 36.8134 107.971 36.8171 107.915 36.8171C107.859 36.8171 107.803 36.8134 107.751 36.806C107.698 36.7987 107.642 36.7876 107.586 36.7765C107.46 37.1013 107.322 37.4519 107.169 37.8284C107.016 38.2049 106.859 38.5887 106.702 38.9763C106.545 39.3638 106.385 39.7476 106.224 40.1278C106.068 40.5079 105.918 40.8623 105.78 41.1944C105.642 41.5266 105.515 41.8219 105.4 42.0839C105.284 42.346 105.191 42.5527 105.124 42.7003C105.206 42.6892 105.28 42.6818 105.347 42.6818H105.758C105.825 42.6818 105.892 42.6892 105.959 42.7003C106.042 42.4198 106.131 42.1356 106.228 41.844C106.325 41.5524 106.433 41.2609 106.549 40.973C106.698 40.9693 106.848 40.9619 106.997 40.9582C107.146 40.9582 107.295 40.9545 107.448 40.9545C107.631 40.9545 107.818 40.9545 108.001 40.9582C108.184 40.9582 108.37 40.9656 108.553 40.973C108.661 41.2646 108.766 41.5561 108.863 41.844C108.96 42.1356 109.057 42.4198 109.15 42.7003C109.269 42.6892 109.393 42.6818 109.516 42.6818H110.251C110.374 42.6818 110.505 42.6892 110.643 42.7003C110.475 42.3681 110.292 41.9658 110.09 41.486C109.889 41.0062 109.68 40.5006 109.467 39.9691M106.769 40.471C106.896 40.1241 107.027 39.7808 107.157 39.4487C107.292 39.1165 107.43 38.7769 107.583 38.4337C107.721 38.7769 107.851 39.1128 107.975 39.4487C108.098 39.7808 108.225 40.1241 108.352 40.471H106.769Z" fill="black"/>
<path d="M120.875 36.8208C120.886 36.8799 120.897 36.9906 120.905 37.153C120.912 37.3191 120.92 37.5147 120.924 37.7435C120.924 37.9723 120.931 38.2196 120.931 38.4928C120.931 38.7622 120.935 39.039 120.935 39.3195V40.8955C120.289 40.2053 119.659 39.5262 119.047 38.8581C118.431 38.1901 117.811 37.511 117.181 36.8208C117.02 36.8503 116.89 36.8651 116.793 36.8651C116.696 36.8651 116.565 36.8503 116.404 36.8208C116.412 37.0275 116.419 37.2637 116.431 37.5295C116.442 37.7989 116.449 38.1274 116.449 38.5223C116.449 38.9541 116.442 39.4081 116.427 39.8805C116.412 40.3529 116.393 40.7884 116.375 41.1907C116.356 41.593 116.337 41.9326 116.319 42.2131C116.3 42.4936 116.285 42.656 116.274 42.7003C116.408 42.6892 116.539 42.6818 116.673 42.6818H116.871C116.942 42.6818 117.009 42.6892 117.08 42.7003C117.072 42.6375 117.069 42.5527 117.061 42.4493C117.054 42.3423 117.05 42.2094 117.043 42.0433C117.035 41.8772 117.031 41.6742 117.031 41.4343C117.031 41.1944 117.028 40.9029 117.028 40.5633V39.5705C117.028 39.4007 117.028 39.2309 117.031 39.0648C117.031 38.8987 117.039 38.7327 117.043 38.5666C118.375 39.9543 119.636 41.331 120.823 42.7003C120.92 42.6892 121.032 42.6818 121.159 42.6818C121.286 42.6818 121.397 42.6892 121.513 42.7003V41.6742C121.513 41.2646 121.513 40.877 121.517 40.5153C121.517 40.1536 121.528 39.7882 121.539 39.4155C121.55 39.0464 121.565 38.6515 121.58 38.2307C121.599 37.81 121.621 37.3412 121.651 36.8245C121.491 36.854 121.36 36.8688 121.263 36.8688C121.166 36.8688 121.035 36.854 120.875 36.8245" fill="black"/>
<path d="M126.752 36.8503C126.42 36.8577 126.04 36.8614 125.614 36.8614C125.353 36.8614 125.099 36.854 124.846 36.8466C124.592 36.8356 124.334 36.8282 124.077 36.8208C124.099 37.1936 124.118 37.5627 124.129 37.9281C124.14 38.2971 124.148 38.7179 124.148 39.1903V40.3529C124.148 40.8254 124.14 41.2461 124.129 41.6152C124.118 41.9843 124.099 42.3423 124.077 42.6966C124.122 42.6929 124.178 42.6855 124.245 42.6855C124.312 42.6855 124.409 42.6818 124.54 42.6818H125.909C126.308 42.6818 126.622 42.6818 126.849 42.6855C127.077 42.6855 127.267 42.6929 127.424 42.6966C127.413 42.6634 127.405 42.6191 127.398 42.5674C127.391 42.5157 127.391 42.4456 127.391 42.3534C127.391 42.2611 127.391 42.191 127.398 42.1393C127.405 42.0876 127.413 42.0323 127.424 41.9695C127.088 42.0101 126.756 42.0396 126.428 42.0544C126.099 42.0728 125.771 42.0802 125.443 42.0802C125.424 41.737 125.416 41.3827 125.416 41.0099C125.416 40.829 125.416 40.6445 125.42 40.4637C125.42 40.2828 125.424 40.0983 125.424 39.9174C126.077 39.9174 126.73 39.9432 127.387 39.9949C127.376 39.9026 127.364 39.8325 127.357 39.7845C127.35 39.7366 127.346 39.6886 127.346 39.6443C127.346 39.5889 127.346 39.5336 127.353 39.4819C127.357 39.4302 127.368 39.3564 127.387 39.2604C127.058 39.2789 126.741 39.2937 126.439 39.3047C126.137 39.3158 125.797 39.3232 125.424 39.3306C125.424 39.0169 125.424 38.7068 125.428 38.3968C125.428 38.0868 125.443 37.7767 125.465 37.463C125.528 37.463 125.637 37.463 125.786 37.4704C125.935 37.4778 126.103 37.4852 126.293 37.4962C126.48 37.5073 126.674 37.5184 126.872 37.5295C127.07 37.5405 127.252 37.5516 127.42 37.5627C127.409 37.4999 127.402 37.4446 127.394 37.3929C127.387 37.3412 127.387 37.2711 127.387 37.1788C127.387 37.0312 127.398 36.9094 127.42 36.8208C127.305 36.8319 127.081 36.843 126.749 36.8503" fill="black"/>
<path d="M133.634 36.8208C133.455 36.8282 133.29 36.8319 133.137 36.8393C132.984 36.8466 132.828 36.8503 132.667 36.8503C132.507 36.8503 132.328 36.8577 132.133 36.8577C131.939 36.8577 131.708 36.8614 131.436 36.8614C131.163 36.8614 130.932 36.8614 130.738 36.8577C130.544 36.8577 130.365 36.8503 130.2 36.8503C130.036 36.8503 129.876 36.843 129.715 36.8393C129.555 36.8319 129.38 36.8282 129.182 36.8208C129.193 36.8836 129.204 36.9463 129.212 37.009C129.219 37.0718 129.223 37.1345 129.223 37.1973C129.223 37.26 129.219 37.3228 129.212 37.3855C129.204 37.4483 129.193 37.511 129.182 37.5737C129.309 37.5553 129.447 37.5405 129.596 37.5258C129.745 37.511 129.894 37.4999 130.036 37.4925C130.182 37.4852 130.316 37.4778 130.443 37.4704C130.57 37.463 130.678 37.463 130.764 37.463C130.775 37.5258 130.783 37.6254 130.786 37.762C130.786 37.8985 130.79 38.0499 130.79 38.2159V40.3566C130.79 40.829 130.783 41.2498 130.771 41.6189C130.76 41.988 130.742 42.346 130.719 42.7003C130.816 42.6892 130.924 42.6818 131.04 42.6818H131.82C131.936 42.6818 132.04 42.6892 132.141 42.7003C132.119 42.346 132.1 41.9843 132.089 41.6189C132.078 41.2498 132.074 40.829 132.074 40.3566V37.7657C132.074 37.6955 132.074 37.6365 132.078 37.5848C132.078 37.5331 132.085 37.4925 132.089 37.4667C132.175 37.4667 132.283 37.4667 132.41 37.4741C132.537 37.4815 132.671 37.4852 132.813 37.4962C132.954 37.5036 133.096 37.5147 133.242 37.5295C133.387 37.5442 133.514 37.559 133.63 37.5774C133.619 37.5147 133.608 37.4519 133.6 37.3892C133.593 37.3265 133.589 37.2637 133.589 37.201C133.589 37.1382 133.593 37.0755 133.6 37.0127C133.608 36.95 133.619 36.8872 133.63 36.8245" fill="black"/>
<path d="M143.265 36.8651C143.168 36.8651 143.045 36.8503 142.903 36.8208C142.862 36.9906 142.795 37.2453 142.694 37.5811C142.597 37.917 142.485 38.2898 142.366 38.6921C142.246 39.0981 142.119 39.5151 141.989 39.9506C141.858 40.3862 141.735 40.7811 141.623 41.1391H141.605C141.552 40.9508 141.485 40.7331 141.407 40.4784C141.325 40.2274 141.239 39.9617 141.142 39.6812C141.045 39.4007 140.951 39.1202 140.854 38.8323C140.761 38.5481 140.672 38.275 140.586 38.0203C140.504 37.762 140.429 37.5295 140.366 37.3191C140.302 37.1087 140.257 36.9389 140.235 36.8134C140.16 36.8245 140.089 36.8356 140.019 36.843C139.948 36.8503 139.877 36.854 139.802 36.854C139.727 36.854 139.657 36.8503 139.586 36.843C139.518 36.8356 139.444 36.8245 139.369 36.8134C139.306 37.0127 139.216 37.2822 139.101 37.6217C138.985 37.9613 138.858 38.3304 138.72 38.7327C138.582 39.135 138.44 39.5446 138.291 39.9654C138.145 40.3862 138.007 40.7737 137.88 41.1317H137.862C137.78 40.8364 137.694 40.5116 137.597 40.161C137.503 39.8104 137.403 39.4487 137.302 39.0759C137.201 38.7031 137.1 38.323 137.003 37.9391C136.906 37.5553 136.813 37.1788 136.727 36.8134C136.612 36.8245 136.496 36.8356 136.376 36.843C136.257 36.8503 136.141 36.854 136.026 36.854C135.91 36.854 135.791 36.8503 135.671 36.843C135.552 36.8356 135.425 36.8245 135.298 36.8134C135.32 36.8725 135.369 37.0238 135.444 37.2711C135.518 37.5184 135.611 37.821 135.72 38.1753C135.828 38.5297 135.947 38.9172 136.074 39.3416C136.201 39.7661 136.324 40.1868 136.447 40.6039C136.567 41.021 136.679 41.4159 136.783 41.785C136.888 42.1577 136.97 42.4567 137.033 42.6929C137.108 42.6818 137.182 42.6745 137.257 42.6745H137.481C137.641 42.6745 137.791 42.6818 137.921 42.6929C138.015 42.4087 138.123 42.0839 138.25 41.7185C138.377 41.3531 138.507 40.9841 138.645 40.6076C138.78 40.2311 138.914 39.8621 139.048 39.5004C139.183 39.1387 139.298 38.8102 139.403 38.5186H139.418C139.679 39.2309 139.925 39.9322 140.157 40.6187C140.392 41.3052 140.601 41.999 140.784 42.6929C140.858 42.6818 140.933 42.6745 141.007 42.6745H141.231C141.392 42.6745 141.541 42.6818 141.672 42.6929C141.765 42.3903 141.873 42.0507 141.996 41.6669C142.119 41.2867 142.25 40.8955 142.381 40.4932C142.511 40.0946 142.646 39.696 142.78 39.3047C142.914 38.9098 143.037 38.5481 143.153 38.2123C143.269 37.8801 143.37 37.5885 143.455 37.3449C143.541 37.1013 143.605 36.9242 143.646 36.8134C143.575 36.8245 143.508 36.8356 143.44 36.843C143.373 36.8503 143.31 36.854 143.246 36.854" fill="black"/>
<path d="M150.661 37.463C150.367 37.212 150.019 37.0238 149.624 36.8983C149.225 36.7728 148.795 36.7101 148.336 36.7101C147.833 36.7101 147.377 36.7913 146.971 36.95C146.56 37.1087 146.213 37.3301 145.922 37.607C145.635 37.8875 145.411 38.2122 145.25 38.5813C145.094 38.9504 145.012 39.349 145.012 39.7698C145.012 40.3049 145.097 40.7663 145.273 41.1501C145.444 41.534 145.68 41.8514 145.978 42.0987C146.277 42.346 146.624 42.5268 147.023 42.6375C147.422 42.7483 147.851 42.8036 148.307 42.8036C148.792 42.8036 149.236 42.7261 149.639 42.5711C150.042 42.4161 150.389 42.202 150.68 41.9252C150.971 41.6484 151.199 41.3236 151.363 40.9545C151.527 40.5854 151.609 40.1831 151.609 39.755C151.609 39.242 151.523 38.7917 151.355 38.4079C151.184 38.024 150.952 37.7066 150.658 37.4556M150.031 40.7921C149.922 41.1354 149.781 41.4159 149.605 41.641C149.43 41.8625 149.225 42.0286 148.986 42.1356C148.751 42.2426 148.501 42.298 148.243 42.298C148.001 42.298 147.769 42.2537 147.553 42.1688C147.333 42.0839 147.139 41.9437 146.974 41.7554C146.806 41.5635 146.676 41.3125 146.575 40.9988C146.478 40.6851 146.43 40.3013 146.43 39.8436C146.43 39.4782 146.471 39.135 146.556 38.8139C146.639 38.4927 146.762 38.2122 146.926 37.9723C147.09 37.7324 147.284 37.5442 147.519 37.404C147.754 37.2637 148.016 37.1936 148.31 37.1936C148.586 37.1936 148.844 37.2489 149.075 37.3597C149.307 37.4704 149.508 37.6291 149.672 37.8358C149.837 38.0425 149.963 38.2898 150.057 38.585C150.15 38.8803 150.195 39.2125 150.195 39.5815C150.195 40.0503 150.143 40.4526 150.034 40.7958" fill="black"/>
<path d="M156.442 39.8178C156.875 39.7107 157.207 39.5225 157.434 39.2604C157.666 38.9984 157.781 38.6588 157.781 38.2418C157.781 37.9834 157.733 37.7657 157.628 37.5774C157.528 37.3929 157.39 37.2379 157.218 37.1124C157.143 37.0607 157.065 37.0164 156.979 36.9795C156.893 36.9426 156.796 36.9131 156.684 36.8909C156.572 36.8688 156.438 36.8503 156.281 36.8393C156.124 36.8282 155.938 36.8208 155.718 36.8208C155.423 36.8208 155.177 36.8282 154.979 36.843C154.781 36.8577 154.602 36.8651 154.445 36.8651C154.3 36.8651 154.169 36.8614 154.057 36.854C153.941 36.8466 153.837 36.8356 153.736 36.8245C153.759 37.1973 153.777 37.5664 153.788 37.9317C153.8 38.3008 153.807 38.7216 153.807 39.194V40.3566C153.807 40.829 153.803 41.2498 153.788 41.6189C153.777 41.988 153.759 42.346 153.736 42.7003C153.833 42.6892 153.941 42.6818 154.057 42.6818H154.837C154.953 42.6818 155.057 42.6892 155.158 42.7003C155.136 42.346 155.117 41.9843 155.106 41.6189C155.095 41.2498 155.087 40.829 155.087 40.3566V40.006H155.165L156.714 42.7003C156.848 42.6892 156.979 42.6818 157.11 42.6818H157.893C158.02 42.6818 158.151 42.6892 158.281 42.7003C157.964 42.2279 157.647 41.7481 157.33 41.2683C157.013 40.7884 156.714 40.3013 156.438 39.8178M155.277 39.6554C155.248 39.6554 155.218 39.6554 155.188 39.6517C155.154 39.6517 155.124 39.6443 155.087 39.6369C155.087 38.8618 155.095 38.0868 155.113 37.3117C155.348 37.3117 155.554 37.3228 155.721 37.3449C155.893 37.3671 156.031 37.4187 156.136 37.4962C156.244 37.5737 156.322 37.6845 156.375 37.8358C156.427 37.9834 156.453 38.1827 156.453 38.4337C156.453 38.8434 156.352 39.1497 156.151 39.3527C155.949 39.5557 155.658 39.6554 155.277 39.6554Z" fill="black"/>
<path d="M163.722 41.1981C163.502 40.877 163.278 40.5485 163.05 40.209C162.827 39.8731 162.621 39.5668 162.435 39.2863C162.55 39.1497 162.711 38.9615 162.92 38.7253C163.129 38.4891 163.345 38.2455 163.573 37.9945C163.801 37.7435 164.017 37.511 164.219 37.2932C164.42 37.0755 164.569 36.9205 164.67 36.8208C164.573 36.8319 164.48 36.843 164.398 36.8503C164.316 36.8577 164.233 36.8614 164.151 36.8614C164.069 36.8614 163.991 36.8577 163.909 36.8503C163.827 36.843 163.748 36.8319 163.666 36.8208C163.592 36.9278 163.472 37.0902 163.304 37.3043C163.136 37.5184 162.95 37.7546 162.741 38.0093C162.532 38.2639 162.315 38.5297 162.091 38.7991C161.868 39.0685 161.655 39.3195 161.461 39.5483V38.729C161.461 38.3119 161.465 37.9317 161.476 37.5922C161.483 37.2489 161.502 36.9943 161.532 36.8208C161.435 36.8319 161.326 36.843 161.211 36.8503C161.095 36.8577 160.964 36.8614 160.823 36.8614C160.681 36.8614 160.55 36.8577 160.435 36.8503C160.319 36.843 160.214 36.8319 160.114 36.8208C160.136 37.1936 160.155 37.5627 160.166 37.9281C160.177 38.2971 160.185 38.7179 160.185 39.1903V40.3529C160.185 40.8254 160.177 41.2461 160.166 41.6152C160.155 41.9843 160.136 42.346 160.114 42.6966C160.211 42.6855 160.319 42.6781 160.435 42.6781H161.215C161.33 42.6781 161.438 42.6855 161.535 42.6966C161.502 42.4346 161.479 42.0802 161.476 41.6373C161.468 41.1907 161.468 40.6593 161.468 40.0355H161.487C161.782 40.4784 162.069 40.925 162.353 41.3753C162.636 41.8219 162.924 42.2648 163.218 42.6966C163.345 42.6855 163.472 42.6781 163.595 42.6781H164.36C164.495 42.6781 164.644 42.6855 164.812 42.6966C164.696 42.56 164.543 42.357 164.353 42.0839C164.163 41.8145 163.957 41.5155 163.733 41.1944" fill="black"/>
<path d="M122.684 10.867C122.576 10.9002 122.501 10.9999 122.412 11.0774C121.804 11.631 121.001 12.4762 120.434 13.1627C120.009 13.6831 119.669 14.2884 119.542 14.9011C119.453 15.3292 119.49 15.7463 119.527 16.1596C119.673 17.5105 119.93 18.3077 119.979 19.0052C118.333 19.5921 115.717 20.083 112.433 19.2009C112.512 18.9868 112.586 18.769 112.654 18.5587C112.933 17.6987 113.96 15.1742 114.09 14.3068C114.187 13.6462 114.105 12.9708 113.721 12.4909C113.445 12.1477 112.821 11.7454 112.422 11.535C111.023 10.8006 110.053 10.3466 108.567 9.93321C108.467 9.90368 108.023 9.82986 107.914 9.83725C107.657 9.84832 107.466 10.1214 107.343 10.354C107.209 10.6012 107.093 10.8264 106.989 11.0368C106.989 11.0368 104.985 14.7497 104.75 15.1742C104.649 15.355 104.701 15.7536 104.847 16.2298L104.839 16.2371C104.839 16.2371 104.877 16.3515 104.955 16.5509C105.164 17.1155 105.474 17.743 105.817 18.2449C106.246 18.9499 106.84 19.7619 107.627 20.5517C105.679 22.4156 104.47 23.4785 101.884 24.3754C100.227 24.6411 97.4917 24.9179 96.8797 24.9696C96.7864 24.9733 96.7006 24.9807 96.6073 24.9844C96.6222 25.0361 96.667 25.0767 96.7304 25.1099C96.7304 25.1099 98.712 26.911 100.958 27.3945C100.996 27.4056 101.033 27.4129 101.067 27.424C104.597 28.332 109.224 25.6118 111.183 22.22C114.448 23.5154 116.893 23.3604 119.878 22.84C120.173 22.7883 120.423 22.5927 120.654 22.3971C120.964 22.1314 121.177 21.7881 121.382 21.4486C122.166 20.1605 122.751 18.9167 123.057 17.5178C123.263 16.5767 123.091 11.4464 123.091 11.4464C123.08 11.1659 122.99 10.7784 122.692 10.867M109.967 18.3815C106.16 16.8498 105.922 15.2628 105.922 15.2628C105.951 15.2443 108.22 13.7495 111.299 16.2999C111.299 16.2999 110.933 17.2078 109.963 18.3815" fill="black"/>
<path d="M128.368 5.77735C128.371 5.55221 128.196 5.58543 128.028 5.60757C127.815 5.6371 124.893 8.67096 125.013 9.8594C125.013 9.8594 125.644 23.3088 125.815 24.117C126.2 25.9403 126.364 24.6781 127.573 23.0356C128.297 22.0539 128.606 20.751 128.767 18.5993C128.849 17.4699 128.371 5.77735 128.371 5.77735H128.368Z" fill="black"/>
<path d="M99.6262 19.8394C99.8016 19.5884 100.35 18.7137 100.503 18.4516C101.048 17.4883 101.126 17.3001 101.66 16.3663C102.067 15.6466 102.432 14.9306 102.593 14.1592C102.869 12.8342 102.582 11.3652 101.522 10.6271C99.1485 8.97359 96.5475 12.1477 94.5735 13.7864C93.954 14.2994 93.2226 15.1151 93.2375 14.8199C93.2972 13.3509 92.9651 5.98033 92.9353 5.74781L92.883 4.92107C92.8718 4.64426 92.7785 4.2641 92.48 4.34899C92.3718 4.37852 92.286 4.47079 92.2113 4.55568C91.6702 5.16835 90.7149 5.95081 90.241 6.60777C89.8529 7.14294 89.4797 7.71133 89.3529 8.31662C89.267 8.73738 89.3043 9.14706 89.3417 9.55305C89.5282 11.1918 89.6178 12.8379 89.7783 14.4803C89.8492 15.1963 89.9275 15.9123 89.9947 16.6284C90.0059 16.7243 90.1776 17.9091 90.088 17.9386L89.8454 19.4223C89.8268 19.4666 89.2558 19.4592 89.1849 19.4592C88.2781 19.4998 87.3713 19.4851 86.4683 19.4223C85.5951 19.3633 84.6845 19.2968 83.8374 19.0791C83.6807 19.0385 83.5277 18.9868 83.3747 18.9351C83.1508 18.8576 82.9381 18.758 82.7366 18.6362C82.5575 18.5291 82.3746 18.4036 82.2589 18.2302C82.1097 18.005 82.1768 17.7135 82.2477 17.4403C82.4754 16.6653 83.4568 13.8861 83.7068 13.1147C83.9083 12.4983 84.1919 11.7675 83.8561 11.2324C83.5725 10.7784 82.9642 10.7083 82.4791 10.6529C80.7551 10.4536 79.0385 10.2838 77.3033 10.2026C75.4785 10.1141 73.6537 10.1177 71.8251 10.162C71.4035 10.1731 70.9855 10.1916 70.5676 10.2432C70.1347 10.3023 69.9369 10.5164 69.6757 10.8596C68.9294 11.8451 68.2166 12.9043 67.6345 13.971C67.3844 14.4323 67.5971 14.6575 67.8808 14.9601C68.2091 15.3107 68.5487 15.654 68.8883 15.9972C70.2131 17.3481 71.4781 18.7469 72.6797 20.2048C73.6723 21.408 74.8777 22.6665 75.4934 24.1687C75.221 24.2684 74.9448 24.3496 74.6687 24.4049C74.0418 24.5304 73.4074 24.571 72.7916 24.5489C72.7767 24.5489 72.7618 24.5489 72.7469 24.5489C67.5225 24.3643 62.7646 20.0202 62.7646 20.0202H62.1899C61.9026 22.2163 63.1341 24.2794 64.567 25.6635C66.403 27.4351 69.0936 28.5682 72.0267 28.0884C72.7655 27.9666 73.538 27.723 74.1649 27.2321C74.5232 26.9516 74.7918 26.6046 75.0493 26.2466C75.3068 25.8923 75.5568 25.5343 75.7994 25.1726C75.7994 25.1874 76.277 24.5821 76.2136 24.6707C76.5196 24.2536 76.8107 23.8255 77.0906 23.3973C77.3742 22.9692 77.654 22.5374 77.919 22.0982C77.9936 21.9727 78.2362 21.6663 78.2101 21.5335C77.9936 20.4447 77.4115 19.5478 76.7734 18.6952C76.0531 17.7356 75.2993 16.7981 74.5194 15.8828C73.9112 15.1668 73.2842 14.4655 72.6461 13.779C73.0753 13.7827 73.5044 13.7901 73.9335 13.8012C75.7509 13.8565 77.557 14.0189 79.3631 14.2146C79.6915 14.2552 80.0237 14.2884 80.352 14.3327C80.464 14.3511 80.5759 14.3696 80.6879 14.3954C81.4939 14.5763 80.9902 17.2447 80.8036 18.0272C80.6207 18.6731 80.3931 19.3153 80.1841 19.9575C80.0759 20.286 79.9602 20.6181 79.8669 20.9466C79.8072 21.157 79.74 21.4006 79.7587 21.6147C79.7587 21.6553 79.7624 21.6922 79.7774 21.7365C79.8819 22.0612 80.2625 22.2606 80.5573 22.4008C81.3073 22.7588 82.1544 22.8843 82.9754 22.9766C84.7666 23.1796 86.5914 23.1796 88.3826 22.9766C88.5095 22.9618 88.6401 22.947 88.767 22.9286C92.2225 22.482 95.8833 21.5445 99.2418 20.2823C99.3985 20.2232 99.5366 19.9575 99.6262 19.832M92.9465 17.1525C92.9763 17.0491 92.9987 16.9495 93.0211 16.8461C93.1144 16.418 93.3122 15.9972 93.6331 15.6577C93.7562 15.5285 93.8794 15.403 94.01 15.2775C94.9765 14.3511 96.193 13.5871 97.4842 13.5059C98.7567 13.4247 99.7568 14.0522 100.193 15.1004C100.417 15.6355 100.503 16.2408 100.462 16.8535C97.6932 17.8574 94.872 18.7063 92.0397 19.1566C92.4166 18.507 92.7524 17.8426 92.9465 17.1525Z" fill="black"/>
<path d="M126.278 4.8288C126.278 4.8288 126.502 4.98382 126.692 4.79189C126.692 4.79189 128.017 3.68834 128.05 3.64036C128.084 3.59238 128.267 3.32295 127.797 2.99815C127.733 2.95386 127.666 2.90588 127.606 2.85421C127.401 2.6586 127.192 2.46299 126.987 2.26737C126.722 2.0164 126.442 1.75435 126.285 1.42217C126.632 1.33359 127.006 1.3705 127.356 1.42217C127.382 1.42586 127.491 1.21918 127.483 1.23394C127.573 1.07893 127.659 0.91653 127.737 0.754134C127.819 0.591738 127.897 0.429342 127.972 0.266946C127.979 0.248492 128.062 0.0565688 128.047 0.052878C127.558 -0.0172476 127.02 -0.0615375 126.588 0.215274C126.423 0.318617 126.311 0.458868 126.211 0.613883C126.211 0.55483 126.14 0.676627 126.005 0.971893C125.864 1.23763 125.726 1.50706 125.606 1.78387C125.546 1.92412 125.487 2.06438 125.472 2.21201C125.449 2.42239 125.498 2.61431 125.584 2.79147C125.304 3.04613 125.08 3.2602 125.08 3.2602C125.08 3.2602 124.83 3.45951 124.99 3.64774C125.188 3.88026 126.267 4.8288 126.267 4.8288" fill="black"/>
<path d="M79.7736 24.6817C79.7736 24.6817 79.4564 24.32 79.1654 24.5599C78.8071 24.8552 77.3406 26.4755 77.3406 26.4755C77.3406 26.4755 77.1018 26.8077 77.4115 27.0882C77.4115 27.0882 79.1766 29.0185 79.2549 29.0664C79.3333 29.1144 79.7587 29.3802 80.2625 28.6789C80.7066 28.0588 81.3111 27.4462 81.4902 27.2985C81.6246 27.1878 81.7626 27.0734 81.8223 26.9516C81.9343 26.7228 79.7811 24.6817 79.7811 24.6817" fill="black"/>
<path d="M118.52 24.6817C118.52 24.6817 118.203 24.32 117.911 24.5599C117.553 24.8552 116.087 26.4755 116.087 26.4755C116.087 26.4755 115.848 26.8077 116.158 27.0882C116.158 27.0882 117.923 29.0185 118.001 29.0664C118.079 29.1144 118.505 29.3802 119.009 28.6789C119.453 28.0588 120.057 27.4462 120.236 27.2985C120.371 27.1878 120.509 27.0734 120.568 26.9516C120.68 26.7228 118.527 24.6817 118.527 24.6817" fill="black"/>
<path d="M98.4283 8.26497C98.5067 8.31295 98.9321 8.57869 99.4359 7.87743C99.8799 7.25738 100.484 6.6447 100.664 6.49707C100.798 6.38634 100.936 6.27193 100.996 6.15013C101.108 5.9213 98.9545 3.88027 98.9545 3.88027C98.9545 3.88027 98.6373 3.51857 98.3462 3.75848C97.988 4.05374 96.5214 5.67401 96.5214 5.67401C96.5214 5.67401 96.2826 6.00619 96.5923 6.28669C96.5923 6.28669 98.3574 8.21699 98.4358 8.26497" fill="black"/>
<path d="M48.4798 22.8548C48.4126 22.8105 48.3491 22.7625 48.2857 22.7145C48.0767 22.5226 47.8678 22.3307 47.6588 22.1351C47.3901 21.8878 47.1065 21.6294 46.946 21.3009C47.2931 21.2087 47.6662 21.2382 48.017 21.2825C48.0431 21.2825 48.1476 21.0758 48.1402 21.0906C48.226 20.9319 48.3081 20.7695 48.3865 20.6071C48.4648 20.4447 48.5432 20.2823 48.6141 20.1162C48.6216 20.0977 48.6999 19.9058 48.6887 19.9021C48.1999 19.8431 47.6625 19.8062 47.2334 20.0903C47.0729 20.1974 46.961 20.3376 46.8639 20.4926C46.8639 20.4336 46.7968 20.5554 46.6662 20.8543C46.5281 21.1238 46.3975 21.3932 46.2781 21.67C46.2184 21.8103 46.1661 21.9505 46.1512 22.1018C46.1325 22.3122 46.1848 22.5041 46.2743 22.6776C45.9982 22.936 45.778 23.1537 45.778 23.1537C45.778 23.1537 45.5317 23.3567 45.6959 23.5413C45.8974 23.7701 46.9908 24.7039 46.9908 24.7039C46.9908 24.7039 47.2147 24.8552 47.405 24.6596C47.405 24.6596 48.7111 23.5376 48.741 23.4859C48.7746 23.4379 48.9537 23.1648 48.4798 22.8474" fill="black"/>
<path d="M58.5926 2.44821C58.365 2.47036 55.1893 5.34182 55.2938 6.50073C55.2938 6.50073 55.417 11.7196 55.5177 15.9455H55.5028C55.5028 15.9455 55.555 17.3887 54.7005 17.599C54.5437 17.6359 54.4131 17.6692 54.29 17.6987C54.2639 17.7061 54.234 17.7135 54.2079 17.7208C54.0959 17.7467 53.9989 17.7725 53.9131 17.791C53.8944 17.7946 53.8758 17.7983 53.8571 17.802C53.7899 17.8168 53.7302 17.8316 53.678 17.8426C53.6631 17.8426 53.6444 17.85 53.6295 17.8537C53.5772 17.8648 53.5362 17.8758 53.4989 17.8832C53.4839 17.8869 53.4653 17.8906 53.4541 17.8943C53.4317 17.898 53.4093 17.9054 53.3907 17.9091C53.3869 17.9091 53.3795 17.9091 53.3757 17.9091L53.2974 17.9238C53.2974 17.9238 52.9839 10.9482 52.8421 8.99204C52.8346 8.86655 52.801 8.74475 52.7451 8.63034C52.5622 8.26495 52.1107 7.46404 51.6256 7.41975C50.6404 7.32748 47.7334 14.4212 44.8787 16.5361L46.4684 14.2994C46.5654 14.1666 46.6139 14.0042 46.6102 13.8381L46.2967 2.63644C46.293 2.45559 46.0654 2.3744 45.9459 2.50726L43.2218 5.51159C42.9606 5.80317 42.8188 6.18332 42.8375 6.57086L43.2442 16.7243C43.2666 17.2927 42.9531 17.8205 42.4456 18.0788L32.8589 22.5484C32.7358 22.6112 32.7209 22.7773 32.8291 22.8585L33.15 23.1057C33.1836 23.1316 33.2246 23.1427 33.2657 23.1427H40.0797C41.4157 23.1427 46.0243 20.035 46.8938 18.7801C47.7633 17.5252 49.7 12.5721 49.7 12.5721C49.7 12.5721 49.8344 12.3728 49.8344 13.5613C49.8344 14.7497 50.1665 21.3563 50.1665 21.8176C50.1665 22.1314 51.4054 22.0022 51.7786 21.9542C51.8196 21.9505 51.8569 21.9431 51.8719 21.9431C51.9092 21.9394 51.9428 21.9284 51.9801 21.9247C52.1667 21.8988 52.3607 21.8656 52.5622 21.825C52.663 21.8066 52.76 21.7844 52.857 21.7623C53.0175 21.7254 53.1817 21.6811 53.3459 21.6331C53.4317 21.6073 53.5213 21.5851 53.6071 21.5593C53.6257 21.5519 53.6407 21.5482 53.6593 21.5445V21.5408C54.1706 21.3711 54.6706 21.1607 55.1371 20.8986C57.044 19.8209 58.3015 17.7098 58.712 15.6208C58.8016 15.1631 58.8613 14.7017 58.9098 14.2367C59.018 13.1442 58.9621 2.61799 58.9583 2.62168C58.9658 2.40392 58.7792 2.42976 58.5963 2.44821" fill="black"/>
<path d="M134.872 11.786C135.006 11.6753 135.144 11.5572 135.208 11.4354C135.301 11.2435 133.823 9.79666 133.316 9.30578C133.424 9.23197 133.536 9.12493 133.655 8.95884C134.107 8.3314 134.715 7.71135 134.894 7.56371C135.029 7.45299 135.167 7.33488 135.23 7.21308C135.346 6.98425 133.167 4.91739 133.167 4.91739C133.167 4.91739 132.846 4.552 132.551 4.7956C132.189 5.09455 130.704 6.73328 130.704 6.73328C130.704 6.73328 130.461 7.06914 130.775 7.35334C130.775 7.35334 131.916 8.60083 132.413 9.12493C131.928 9.58628 130.681 10.9593 130.681 10.9593C130.681 10.9593 130.439 11.2951 130.752 11.5793C130.752 11.5793 132.536 13.5318 132.614 13.5798C132.693 13.6277 133.122 13.8972 133.633 13.1885C134.085 12.5611 134.693 11.941 134.872 11.7934" fill="black"/>
<path d="M63.3393 18.0862C63.4177 18.1342 63.8431 18.3999 64.3469 17.6987C64.7909 17.0786 65.3955 16.466 65.5746 16.3183C65.7089 16.2076 65.847 16.0932 65.9067 15.9714C66.0112 15.7647 64.2461 14.0669 63.9215 13.7532C64.0521 13.6868 64.1976 13.5687 64.3506 13.3546C64.7947 12.7345 65.3992 12.1219 65.5783 11.9742C65.7127 11.8635 65.8507 11.7454 65.9104 11.6273C66.0224 11.3985 63.8692 9.35744 63.8692 9.35744C63.8692 9.35744 63.552 8.99573 63.261 9.23564C62.9027 9.5309 61.4362 11.1512 61.4362 11.1512C61.4362 11.1512 61.1973 11.4833 61.5071 11.7639C61.5071 11.7639 62.802 13.1774 63.2199 13.613C62.8057 13.982 61.4362 15.4916 61.4362 15.4916C61.4362 15.4916 61.1973 15.8238 61.5071 16.1043C61.5071 16.1043 63.2721 18.0346 63.3505 18.0825" fill="black"/>
<path d="M161.736 24.2019C161.736 24.2019 161.419 23.8402 161.128 24.0801C160.77 24.3754 159.303 25.9957 159.303 25.9957C159.303 25.9957 159.064 26.3278 159.374 26.6083C159.374 26.6083 161.139 28.5386 161.218 28.5866C161.296 28.6346 161.721 28.9003 162.225 28.1991C162.669 27.579 163.274 26.9664 163.453 26.8187C163.587 26.708 163.725 26.5936 163.785 26.4718C163.897 26.243 161.744 24.2019 161.744 24.2019" fill="black"/>
<path d="M182.003 14.7128C181.458 15.1483 180.294 15.5875 179.887 15.7315C177.268 16.621 174.603 17.3628 171.935 17.7504L169.733 17.9792C167.741 18.0973 165.621 18.0309 163.681 17.5178C163.3 17.4182 162.919 17.289 162.591 17.0713C162.199 16.8129 162.009 16.5361 162.117 16.06C162.139 15.9677 162.072 15.8791 161.975 15.8717C161.897 15.8644 161.796 15.8644 161.684 15.868C161.393 15.8754 161.33 16.2334 161.33 16.2334C161.184 16.7169 161.042 17.1118 160.904 17.4477C160.729 17.791 160.449 18.1859 160.016 18.507C159.893 18.5993 159.759 18.6878 159.606 18.769C158.415 19.378 156.822 19.2045 155.657 18.6066C154.851 18.1896 154.176 17.5584 153.556 16.9125C153.097 16.4364 152.657 15.9419 152.224 15.4436C150.511 13.4764 148.799 11.0368 147.496 9.17289C149.649 8.52331 154.889 7.86634 158.348 6.79231C158.923 6.61515 159.363 6.16487 159.523 5.59279C159.643 5.16835 159.77 4.66271 159.837 4.20504C160.091 2.55525 160.061 1.80232 160.061 1.80232L159.822 1.59932C155.643 3.15685 148.56 5.44516 147.015 6.5967C146.295 7.13925 145.851 10.8005 145.851 12.3249C147.425 14.7313 148.25 16.4918 148.694 18.3224C147.496 19.0938 145.302 19.5589 144.171 19.5589C144.145 19.5589 144.127 19.5662 144.104 19.5699C143.779 19.5699 143.459 19.5626 143.138 19.533C142.682 19.4887 142.223 19.3965 141.899 19.127C141.41 18.721 141.29 17.9128 141.481 17.241C141.641 16.6726 142.067 16.1264 142.317 15.5728C142.675 14.7756 142.593 13.8455 142.522 13.3841C142.522 13.3767 142.522 13.373 142.526 13.3657L142.507 13.2955L142.339 12.6939L142.257 12.3987C141.925 11.3062 141.298 9.26147 141.156 8.91822C140.966 8.45687 140.574 8.78166 140.555 8.79643C137.701 10.3097 135.488 12.9744 134.566 15.9197C134.234 16.979 133.95 18.053 133.734 19.1233C133.641 19.5736 133.547 20.0424 133.633 20.4705C133.782 21.2124 134.517 21.2603 135.226 21.1275C136.611 20.8691 137.966 20.19 139.107 19.2525C139.346 19.0569 139.566 18.8502 139.779 18.6362C139.611 19.1639 139.354 19.6216 139.048 20.2195C138.794 20.7178 138.559 21.2751 138.663 21.7844C138.798 22.434 139.451 22.7846 140.104 22.9544C140.186 22.9766 140.272 22.995 140.354 23.0135C140.395 23.0319 140.421 23.043 140.406 23.0282L140.391 23.0209C141.298 23.2128 144.574 23.2091 144.574 23.2091C144.574 23.2091 145.045 23.2239 145.664 23.0873C146.436 22.9729 147.06 22.7773 147.325 22.5816C147.802 22.2089 149.485 19.3633 150.101 17.802C152.762 21.1348 154.351 22.7256 156.497 23.1021C156.497 23.1021 157.743 23.3899 158.706 22.9876C159.352 22.7182 159.956 21.8546 160.475 20.847C160.677 20.9429 160.886 21.0278 161.109 21.0832C161.098 21.1016 161.094 21.1127 161.098 21.1164C161.192 21.1348 161.281 21.1533 161.374 21.1681C162.162 21.3268 162.957 21.4449 163.766 21.5187C165.345 21.6626 166.961 21.6479 168.603 21.4596C171.853 21.0869 175.282 20.2749 178.488 19.175L177.372 22.2163L177.861 22.5263L182.369 14.9712L181.996 14.7017L182.003 14.7128ZM138.529 16.3663C137.835 16.728 137.104 16.9974 136.365 17.1488C135.801 17.2632 135.253 17.2669 134.932 16.9679C134.943 16.9495 134.954 16.931 134.965 16.9125C135.958 15.4288 137.275 14.1444 138.801 13.1959C139.018 13.7532 139.391 14.7423 139.66 15.665C139.298 15.9271 138.921 16.1633 138.529 16.37" fill="black"/>
<path d="M163.501 13.3952C163.501 13.3952 164.763 9.68222 166.834 8.85548C166.834 8.85548 167.039 8.95513 167.793 9.67115C168.547 10.3909 168.491 10.7858 169.856 9.79664C170.939 9.01049 171.972 7.98814 172.357 7.6006C172.457 7.49726 172.532 7.37177 172.573 7.23152L172.629 7.04328C172.715 6.75171 172.651 6.44168 172.454 6.20916C172.039 5.72566 171.308 4.91737 170.83 4.65163C170.129 4.2604 169.48 3.69571 166.42 6.78493C163.36 9.87045 162.744 12.9892 162.751 13.1774C162.759 13.3657 163.501 13.3989 163.501 13.3989" fill="black"/>
<path d="M3.31149 21.3932L10.0323 18.7875C10.0323 18.7875 12.6482 18.1342 13.8759 15.0081L14.8125 12.6349C14.9767 12.2215 14.6745 11.7712 14.2229 11.7565L10.7972 11.6568C10.4726 11.6457 10.1666 11.8118 9.99493 12.085L8.59929 14.3216C8.4948 14.4877 8.33807 14.6132 8.15148 14.6759C7.27081 14.9786 4.55414 15.9456 2.88981 16.9162C2.72562 17.0122 2.58755 17.1414 2.4756 17.2927C1.97928 17.9755 0.594828 20.0719 0.0910508 22.8843C-0.0656798 23.7627 -0.0171679 24.6633 0.214196 25.5232C0.497804 26.5751 1.04263 28.2102 2.04645 30.2253C2.43081 30.993 3.62868 33.2777 3.62868 33.2777C3.73317 33.477 4.00932 33.4991 4.14739 33.3219L4.67729 32.6244C4.7258 32.5579 4.74819 32.4767 4.73326 32.3992L3.11744 21.718C3.09505 21.5777 3.17715 21.4412 3.30776 21.3895" fill="black"/>
<path d="M38.7587 14.8457V14.7866L35.3666 15.0856C34.0568 14.7866 33.7433 13.1774 33.7433 13.1774C34.6128 13.4026 35.4375 13.6166 36.2548 13.827C36.7548 12.5389 37.2399 11.2914 37.7288 10.0439C37.3444 9.91105 36.9899 9.76711 36.6242 9.67115C36.0868 9.5309 35.5607 9.33898 34.986 9.37958C34.7434 9.39434 34.5195 9.47185 34.3218 9.57519C34.0643 9.70806 33.8254 9.88891 33.6165 10.0919C33.247 10.4499 32.8701 10.8153 32.5641 11.2213C32.1425 11.7823 31.7805 12.395 31.5081 13.0409C31.3401 13.4358 31.2095 13.8529 31.1237 14.2699C31.0491 14.639 30.9894 15.0265 31.0267 15.403L32.0529 16.7501C31.5081 17.0011 30.4968 17.4477 29.8922 17.5953C29.0265 17.8094 28.6944 17.8832 28.5675 17.9128L28.4891 17.9275C28.4891 17.9275 28.1757 10.9519 28.0339 8.99573C28.0227 8.87024 27.9928 8.74845 27.9368 8.63403C27.754 8.26864 27.3025 7.46773 26.8173 7.42344C25.8322 7.33117 22.9252 14.4249 20.0705 16.5398L21.6602 14.3031C21.7572 14.1703 21.8057 14.0079 21.802 13.8418L21.4885 2.64014C21.4848 2.45929 21.2571 2.37809 21.134 2.51096L18.4099 5.51529C18.1486 5.80686 18.0068 6.18702 18.0255 6.57455L18.4323 16.728C18.4546 17.2964 18.1412 17.8242 17.6337 18.0825L8.04698 22.5484C7.92384 22.6112 7.90891 22.7773 8.01713 22.8585L8.33432 23.1021C8.36791 23.1279 8.40896 23.1427 8.45 23.1427H15.2641C16.6 23.1427 21.2086 20.035 22.0781 18.7801C22.9476 17.5252 24.8843 12.5721 24.8843 12.5721C24.8843 12.5721 25.0187 12.3728 25.0187 13.5613C25.0187 14.7497 25.3508 21.3563 25.3508 21.8176C25.3508 22.0945 27.0748 22.1203 28.8511 21.5445C31.314 21.0315 38.7625 17.0196 38.7625 17.0196V14.842L38.7587 14.8457Z" fill="black"/>
<path d="M188.999 5.22747C188.999 3.74007 187.779 2.53687 186.279 2.53687C184.779 2.53687 183.559 3.74376 183.559 5.22747C183.559 6.71119 184.779 7.91808 186.279 7.91808C187.779 7.91808 188.999 6.71119 188.999 5.22747Z" fill="#D02D2E"/>
</svg>
